<svg version="1.1" id="Layer_1" xmlns="http://www.w3.org/2000/svg" x="0" y="0" viewBox="0 0 256 256" style="enable-background:new 0 0 256 256" xml:space="preserve"><style>.st2{fill:#edaf85}.st4{fill:#d8d6d7}.st6{fill:#1c868e}.st7{fill:#40c4df}.st8{fill:#491352}</style><path d="M188.17 182.882v3.71c0 2.76-2.24 5-5 5H72.83c-2.76 0-5-2.24-5-5v-3.71c0-33.23 26.94-60.17 60.17-60.17 2.77 0 5.5.19 8.17.55 13.35 1.81 25.31 8 34.38 17.07 10.89 10.89 17.62 25.93 17.62 42.55z" style="fill:#d73735"/><path d="M188.17 182.882v3.71c0 2.76-2.24 5-5 5h-94c-2.76 0-5-2.24-5-5v-3.71c0-30.46 22.64-55.64 52-59.62 13.35 1.81 25.31 8 34.38 17.07 10.89 10.89 17.62 25.93 17.62 42.55z" style="fill:#f85252"/><path class="st2" d="M128 143.457c-7.112 0-12.878-5.766-12.878-12.878v-28.621h25.756v28.621c0 7.112-5.766 12.878-12.878 12.878zM76.274 78.595c0 6.163 5.042 11.205 11.205 11.205h4.589V67.39h-4.589c-6.162 0-11.205 5.042-11.205 11.205zM168.521 67.39h-4.589V89.8h4.589c6.163 0 11.205-5.042 11.205-11.205s-5.043-11.205-11.205-11.205z"/><path class="st2" d="M164.97 42.642v43.06c0 18.14-13.23 33.33-30.53 36.4-2.09.38-4.24.57-6.44.57-20.34 0-36.97-16.63-36.97-36.97v-43.06c0-2.75 2.25-5 5-5h63.94c2.75 0 5 2.25 5 5z"/><path d="M164.97 42.642v43.06c0 18.14-13.23 33.33-30.53 36.4-17.3-3.06-30.54-18.25-30.54-36.4v-43.06c0-2.75 2.25-5 5-5h51.07c2.75 0 5 2.25 5 5z" style="fill:#f7c09a"/><path class="st4" d="M208 154.612v93.33c0 2.76-2.24 5-5 5H53c-2.76 0-5-2.24-5-5v-93.33c0-2.76 2.24-5 5-5h150c2.76 0 5 2.24 5 5z"/><path d="M208 154.612v93.33c0 2.76-2.24 5-5 5H74.21c-2.76 0-5-2.24-5-5v-93.33c0-2.76 2.24-5 5-5H203c2.76 0 5 2.24 5 5z" style="fill:#fff"/><path class="st4" d="M136.109 182.232h-16.217a5 5 0 0 0-4.33 2.5l-8.108 14.044a5 5 0 0 0 0 5l8.108 14.044a5 5 0 0 0 4.33 2.5h16.217a5 5 0 0 0 4.33-2.5l8.108-14.044a5 5 0 0 0 0-5l-8.108-14.044a5.001 5.001 0 0 0-4.33-2.5z"/><path class="st6" d="M100.61 35.742v22.39c0 5.11-4.15 9.26-9.26 9.26-5.11 0-9.26-4.15-9.26-9.26v-22.39c0-5.11 4.15-9.26 9.26-9.26 2.55 0 4.87 1.04 6.55 2.71a9.26 9.26 0 0 1 2.71 6.55z"/><path class="st7" d="M100.61 35.742v10.22c0 5.11-4.15 9.26-9.26 9.26-5.11 0-9.26-4.15-9.26-9.26v-10.22c0-5.11 4.15-9.26 9.26-9.26 2.55 0 4.87 1.04 6.55 2.71a9.26 9.26 0 0 1 2.71 6.55z"/><path class="st7" d="m185.88 7.072-2.1 7.32-4.8 16.74c-4.08 14.25-18.11 24.51-32.77 22.29l-42.32-4.86a3.727 3.727 0 0 1-3.23-3.03c-.03-.21-.05-.43-.05-.65v-9.14c0-11.99 9.72-21.71 21.71-21.71h32.47c9.77 0 19.2-3.63 26.44-10.2.59-.54 1.27-.77 1.92-.77 1.87 0 3.58 1.89 2.73 4.01z"/><path class="st6" d="m183.78 14.392-4.8 16.74c-4.08 14.25-18.11 24.51-32.77 22.29l-42.32-4.86a3.727 3.727 0 0 1-3.23-3.03c.75-11.31 10.16-20.25 21.66-20.25h32.47c9.77 0 19.2-3.63 26.44-10.2.59-.54 1.27-.77 1.92-.77.21 0 .42.02.63.08z"/><circle class="st8" cx="109.792" cy="75.631" r="4.954"/><circle class="st8" cx="146.208" cy="75.631" r="4.954"/><path class="st8" d="M137.885 90.182c0-2.642-4-2.646-4 0 0 3.245-2.64 5.885-5.885 5.885s-5.885-2.64-5.885-5.885c0-2.642-4-2.646-4 0 0 5.451 4.434 9.885 9.885 9.885s9.885-4.434 9.885-9.885z"/><path class="st8" d="M203.003 147.61H179.18a61.969 61.969 0 0 0-36.301-25.099v-.798c12.32-5.109 21.47-16.359 23.61-29.913h2.031c7.281 0 13.205-5.923 13.205-13.205S175.802 65.39 168.52 65.39h-1.551V52.642c0-.656-.094-1.305-.275-1.928 6.636-4.253 11.893-10.946 14.211-19.035l6.868-23.969c.805-2.138.093-4.437-1.793-5.749-1.917-1.334-4.369-1.176-6.1.392a37.29 37.29 0 0 1-25.091 9.68h-32.474c-10.484 0-19.394 6.843-22.514 16.295-2.065-2.351-5.084-3.845-8.452-3.845-6.208 0-11.258 5.05-11.258 11.258v22.392a11.22 11.22 0 0 0 3.271 7.924c-5.27 1.735-9.089 6.696-9.089 12.539 0 7.281 5.923 13.205 13.205 13.205h2.031c2.139 13.554 11.29 24.804 23.61 29.913v.817c-14.798 3.62-27.601 12.46-36.301 25.081H52.997c-3.86 0-7 3.14-7 7v93.332c0 3.86 3.14 7 7 7h150.007c3.86 0 7-3.14 7-7V154.61c-.001-3.86-3.141-7-7.001-7zM166.97 69.39h1.551c5.075 0 9.205 4.129 9.205 9.205s-4.129 9.205-9.205 9.205h-1.609c.079-1.486.058-.541.058-18.41zm-64.361-33.65c0-10.867 8.841-19.708 19.708-19.708h32.474a41.284 41.284 0 0 0 27.778-10.716c.467-.422.908-.226 1.129-.073.221.154.558.5.324 1.083a1.85 1.85 0 0 0-.067.194l-6.894 24.056c-3.925 13.697-17.349 22.868-30.625 20.862l-42.318-4.867a1.704 1.704 0 0 1-1.51-1.693V35.74zM87.479 87.8c-5.075 0-9.205-4.129-9.205-9.205s4.129-9.205 9.205-9.205h1.551c0 17.945-.02 16.95.058 18.409h-1.609zm-3.387-29.668V35.74c0-4.002 3.256-7.258 7.258-7.258s7.258 3.256 7.258 7.258v22.392c0 4.002-3.256 7.258-7.258 7.258s-7.258-3.255-7.258-7.258zm8.938 27.57v-16.45c5.412-.815 9.579-5.483 9.579-11.119v-7.81c.338.105.689.181 1.052.223 47.851 5.502 44.389 5.172 46.453 5.172 4.452 0 8.831-1.05 12.856-2.944v32.928c0 19.283-15.688 34.97-34.97 34.97s-34.97-15.688-34.97-34.97zm45.85 37.413v7.467c0 5.999-4.881 10.88-10.88 10.88s-10.88-4.881-10.88-10.88v-7.467a38.802 38.802 0 0 0 21.76 0zm-25.76 3.53v3.937c0 8.205 6.675 14.88 14.88 14.88s14.88-6.675 14.88-14.88v-3.945c12.159 3.208 23.27 10.362 31.364 20.974H81.757c7.872-10.341 18.821-17.675 31.363-20.966zm92.883 121.297c0 1.654-1.346 3-3 3H52.997c-1.654 0-3-1.346-3-3V154.61c0-1.654 1.346-3 3-3h150.007c1.654 0 3 1.346 3 3v93.332z"/><path class="st8" d="M142.171 183.732a7.019 7.019 0 0 0-6.063-3.5h-16.217a7.018 7.018 0 0 0-6.062 3.5l-8.109 14.044a7.022 7.022 0 0 0 0 7l8.109 14.044a7.018 7.018 0 0 0 6.062 3.5h16.217a7.018 7.018 0 0 0 6.062-3.5l8.109-14.044a7.02 7.02 0 0 0 0-7l-8.108-14.044zm4.644 19.044-8.109 14.044a3.009 3.009 0 0 1-2.598 1.5h-16.217a3.009 3.009 0 0 1-2.598-1.5l-8.109-14.044a3.01 3.01 0 0 1 0-3l8.109-14.044a3.008 3.008 0 0 1 2.598-1.5h16.217c1.068 0 2.064.575 2.598 1.5l8.108 14.043c.535.926.536 2.075.001 3.001z"/></svg>